<svg xmlns="http://www.w3.org/2000/svg" width="16" height="16" viewBox="0 0 16 16" class="" style="font-size: 16px;"><path fill="currentColor" fill-rule="evenodd" d="M1 13V3q0-.098.01-.196t.028-.194.048-.19.066-.185.084-.178.101-.168.117-.158.132-.145.145-.132.158-.117.168-.1.178-.085.184-.066.19-.048.195-.028T3 1h10q.098 0 .196.01t.194.028.19.048.185.066.178.084.168.101.158.117.145.132.132.145.117.158.1.168.085.178.066.184.048.19.028.195T15 3v10q0 .098-.01.196t-.028.194-.048.19-.066.185-.084.178-.101.168-.117.158-.132.145-.145.132-.158.117-.168.1-.178.085-.184.066-.19.048-.195.028T13 15H3q-.098 0-.196-.01t-.194-.028-.19-.048-.185-.066-.178-.084-.168-.101-.158-.117-.145-.132-.132-.145-.117-.158-.1-.168-.085-.178-.066-.184-.048-.19-.028-.195T1 13M6 2.2h7q.8 0 .8.8v10q0 .8-.8.8H6z"></path></svg>