<svg data-v-e1553b95="" xmlns="http://www.w3.org/2000/svg" width="16" height="16" viewBox="0 0 16 16" class="" style="font-size: 16px;"><defs><clipPath id="master_svg0_1855_28523"><rect width="16" height="16" rx="0"></rect></clipPath></defs><g clip-path="url(#master_svg0_1855_28523)"><path fill="currentColor" fill-rule="evenodd" d="M1.5 2.4h13q.06 0 .117.012.058.011.113.034.054.022.103.055.05.033.091.075.042.042.075.09.033.05.055.104.023.055.035.113.011.058.011.117t-.011.117-.035.113-.055.103-.075.091-.09.075-.104.055-.113.034-.117.012h-13q-.059 0-.117-.012-.058-.011-.112-.034-.055-.022-.104-.055-.05-.033-.091-.075-.042-.042-.075-.09-.033-.05-.055-.104-.023-.055-.034-.113T.9 3t.012-.117.034-.113q.022-.054.055-.103.033-.05.075-.091.042-.042.09-.075.05-.033.105-.055.054-.023.112-.034T1.5 2.4m0 5h13q.06 0 .117.012.058.011.113.034.054.022.103.055.05.033.091.075.042.042.075.09.033.05.055.104.023.055.035.113.011.058.011.117t-.011.117-.035.113-.055.103-.075.091-.09.075-.104.055-.113.034-.117.012h-13q-.059 0-.117-.012-.058-.011-.112-.034-.055-.022-.104-.055-.05-.033-.091-.075-.042-.042-.075-.09-.033-.05-.055-.104-.023-.055-.034-.113T.9 8t.012-.117.034-.113T1 7.667q.033-.05.075-.091.042-.042.09-.075.05-.033.105-.055.054-.023.112-.034T1.5 7.4m0 5h13q.06 0 .117.012.058.011.113.034.054.022.103.055.05.033.091.075.042.042.075.09.033.05.055.104.023.055.035.113.011.058.011.117t-.011.117-.035.113-.055.103-.075.091-.09.075-.104.055-.113.035-.117.011h-13q-.059 0-.117-.011-.058-.012-.112-.035-.055-.022-.104-.055-.05-.033-.091-.075-.042-.041-.075-.09-.033-.05-.055-.104-.023-.055-.034-.113T.9 13t.012-.117.034-.113.055-.103q.033-.05.075-.091.042-.042.09-.075.05-.033.105-.055.054-.023.112-.034T1.5 12.4"></path></g></svg>